<svg xmlns="http://www.w3.org/2000/svg" xmlns:xlink="http://www.w3.org/1999/xlink" viewBox="0,0,256,256" width="120px" height="120px"><g fill="#000000" fill-rule="nonzero" stroke="none" stroke-width="1" stroke-linecap="butt" stroke-linejoin="miter" stroke-miterlimit="10" stroke-dasharray="" stroke-dashoffset="0" font-family="none" font-weight="none" font-size="none" text-anchor="none" style="mix-blend-mode: normal"><g transform="scale(8.53333,8.53333)"><path d="M10.67969,4.18164c-0.611,0 -1.17769,0.13678 -1.67969,0.42578c-1.56887,0.90579 -2.16603,3.11312 -1.84961,5.86133c-2.53769,1.10008 -4.15039,2.71992 -4.15039,4.53125c0,1.81133 1.6127,3.43117 4.15039,4.53125c-0.31626,2.7481 0.28074,4.95554 1.84961,5.86133c0.501,0.289 1.06769,0.42578 1.67969,0.42578c1.30263,0 2.80816,-0.65377 4.32031,-1.77539c1.51228,1.12162 3.01964,1.77539 4.32227,1.77539c0.611,0 1.17769,-0.13678 1.67969,-0.42578c1.56886,-0.90579 2.16602,-3.11315 1.84961,-5.86133c2.53674,-1.10007 4.14844,-2.72031 4.14844,-4.53125c0,-1.81133 -1.6127,-3.43117 -4.15039,-4.53125c0.31626,-2.7481 -0.28074,-4.95554 -1.84961,-5.86133c-0.501,-0.29 -1.06769,-0.42578 -1.67969,-0.42578c-1.30263,0 -2.80816,0.65377 -4.32031,1.77539c-1.51224,-1.12162 -3.01814,-1.77539 -4.32031,-1.77539zM10.67969,5.93164c0.78163,0 1.81527,0.41561 2.9375,1.18555c-0.65982,0.62268 -1.30604,1.33074 -1.92774,2.11914c-1.00837,0.14459 -1.95911,0.35536 -2.83984,0.61914c-0.00473,-0.06108 -0.01593,-0.12517 -0.01953,-0.18555c-0.107,-1.78 0.28392,-3.10688 1.04492,-3.54687c0.225,-0.13 0.48769,-0.19141 0.80469,-0.19141zM19.32031,5.93164c0.316,0 0.57969,0.06141 0.80469,0.19141c0.761,0.439 1.15192,1.76687 1.04492,3.54688c-0.00363,0.06038 -0.01478,0.12447 -0.01953,0.18555c-0.88129,-0.26394 -1.83272,-0.47454 -2.8418,-0.61914c-0.62169,-0.78829 -1.26598,-1.49653 -1.92578,-2.11914c1.12215,-0.76981 2.15627,-1.18555 2.9375,-1.18555zM15,8.22852c0.27108,0.24674 0.54027,0.50752 0.8125,0.79297c-0.26978,-0.00906 -0.53813,-0.02148 -0.8125,-0.02148c-0.27371,0 -0.5414,0.01247 -0.81055,0.02148c0.27199,-0.28515 0.53972,-0.54647 0.81055,-0.79297zM15,10.75c0.82869,0 1.61413,0.04632 2.35938,0.12695c0.45449,0.61774 0.9024,1.27086 1.32227,1.99805c0.40243,0.69703 0.7583,1.41049 1.07227,2.125c-0.31401,0.71494 -0.66959,1.4295 -1.07227,2.12695c-0.41856,0.72509 -0.86536,1.374 -1.31836,1.99023c-0.77157,0.08442 -1.56306,0.13281 -2.36328,0.13281c-0.82869,0 -1.61413,-0.04632 -2.35937,-0.12695c-0.45449,-0.61774 -0.9024,-1.26891 -1.32227,-1.99609c-0.40267,-0.69745 -0.75816,-1.41201 -1.07226,-2.12695c0.31388,-0.71451 0.66983,-1.42797 1.07226,-2.125c0.41872,-0.72509 0.86525,-1.37595 1.31836,-1.99219c0.77157,-0.08442 1.56306,-0.13281 2.36328,-0.13281zM19.74609,11.29102c0.39675,0.09579 0.77816,0.19919 1.13672,0.31445c-0.08123,0.36705 -0.18058,0.74114 -0.29297,1.11914c-0.12868,-0.24147 -0.25347,-0.48371 -0.39258,-0.72461c-0.14313,-0.2478 -0.30202,-0.47044 -0.45117,-0.70898zM10.25195,11.29297c-0.14865,0.23781 -0.30655,0.46002 -0.44922,0.70703c-0.13907,0.24094 -0.26394,0.48311 -0.39258,0.72461c-0.11265,-0.37878 -0.21361,-0.75331 -0.29492,-1.12109c0.36514,-0.11537 0.7456,-0.21753 1.13672,-0.31055zM7.46875,12.24609c0.2107,0.88962 0.50298,1.81182 0.87891,2.75195c-0.37513,0.9379 -0.66618,1.85841 -0.87695,2.74609c-1.74147,-0.84094 -2.7207,-1.88777 -2.7207,-2.74414c0,-0.879 0.95188,-1.88073 2.54688,-2.67773c0.05444,-0.02724 0.11625,-0.04957 0.17188,-0.07617zM22.5293,12.25586c1.74147,0.84094 2.7207,1.88777 2.7207,2.74414c0,0.879 -0.95188,1.88073 -2.54687,2.67773c-0.05444,0.02723 -0.11625,0.04957 -0.17187,0.07617c-0.21082,-0.89014 -0.50071,-1.81321 -0.87695,-2.75391c0.37468,-0.93709 0.66441,-1.8572 0.875,-2.74414zM15,13c-1.105,0 -2,0.895 -2,2c0,1.105 0.895,2 2,2c1.105,0 2,-0.895 2,-2c0,-1.105 -0.895,-2 -2,-2zM9.41016,17.27539c0.12872,0.24156 0.25537,0.48362 0.39453,0.72461c0.14297,0.24762 0.30023,0.47061 0.44922,0.70898c-0.39675,-0.09579 -0.77816,-0.19919 -1.13672,-0.31445c0.08129,-0.36728 0.18048,-0.7409 0.29297,-1.11914zM20.58984,17.27734c0.11252,0.37842 0.21367,0.75171 0.29492,1.11914c-0.36514,0.11537 -0.7456,0.21753 -1.13672,0.31055c0.14865,-0.23781 0.30655,-0.46002 0.44922,-0.70703c0.13878,-0.24044 0.26418,-0.48166 0.39258,-0.72266zM8.84961,20.14453c0.88129,0.26394 1.83272,0.47454 2.8418,0.61914c0.62188,0.78867 1.26568,1.49826 1.92578,2.12109c-1.12215,0.76972 -2.15592,1.18555 -2.9375,1.18555c-0.316,0 -0.57969,-0.06336 -0.80469,-0.19336c-0.761,-0.439 -1.15192,-1.76492 -1.04492,-3.54492c0.00366,-0.06101 0.01472,-0.12578 0.01953,-0.1875zM21.15039,20.14453c0.00479,0.06172 0.01589,0.12649 0.01953,0.1875c0.107,1.78 -0.28392,3.10492 -1.04492,3.54492c-0.225,0.13 -0.48769,0.19336 -0.80469,0.19336c-0.78158,0 -1.81535,-0.4157 -2.9375,-1.18555c0.66015,-0.6229 1.30573,-1.33231 1.92773,-2.12109c1.00837,-0.14459 1.95911,-0.35536 2.83984,-0.61914zM14.1875,20.97852c0.26978,0.00906 0.53813,0.02148 0.8125,0.02148c0.27437,0 0.54272,-0.01242 0.8125,-0.02148c-0.27223,0.28545 -0.54142,0.54625 -0.8125,0.79297c-0.27108,-0.24674 -0.54027,-0.50752 -0.8125,-0.79297z"></path></g></g><g fill="#000000" fill-rule="nonzero" stroke="none" stroke-width="1" stroke-linecap="butt" stroke-linejoin="miter" stroke-miterlimit="10" stroke-dasharray="" stroke-dashoffset="0" font-family="none" font-weight="none" font-size="none" text-anchor="none" style="mix-blend-mode: normal"><g><path d="M108.585,244.87333v-11.83c0.26667,-0.04667 0.55,-0.09 0.85,-0.13c0.3,-0.04 0.6,-0.07 0.9,-0.09c0.30667,-0.02667 0.6,-0.04333 0.88,-0.05c0.28667,-0.01333 0.55,-0.02 0.79,-0.02v0c0.55333,0 1.1,0.05 1.64,0.15c0.54,0.10667 1.02333,0.28333 1.45,0.53c0.42667,0.25333 0.77,0.59667 1.03,1.03c0.25333,0.44 0.38,0.99 0.38,1.65v0c0,0.98 -0.22667,1.77667 -0.68,2.39c-0.45333,0.61333 -1.06333,1.04 -1.83,1.28v0l0.84,0.53l2.73,4.56h-2.7l-2.71,-4.68l-1.23,-0.22v4.9zM112.175,234.83333v0c-0.24,0 -0.47667,0.00667 -0.71,0.02c-0.23333,0.01333 -0.41333,0.03667 -0.54,0.07v0v3.46h0.99c0.64667,0 1.16667,-0.14667 1.56,-0.44c0.38667,-0.3 0.58,-0.79 0.58,-1.47v0c0,-0.51333 -0.16,-0.91333 -0.48,-1.2c-0.32,-0.29333 -0.78667,-0.44 -1.4,-0.44zM124.085,242.68333l0.73,1.45c-0.34,0.27333 -0.80333,0.50333 -1.39,0.69c-0.58667,0.19333 -1.21,0.29 -1.87,0.29v0c-1.37333,0 -2.38,-0.40333 -3.02,-1.21c-0.63333,-0.8 -0.95,-1.9 -0.95,-3.3v0c0,-1.5 0.35667,-2.62667 1.07,-3.38c0.72,-0.75333 1.72667,-1.13 3.02,-1.13v0c0.43333,0 0.85667,0.06 1.27,0.18c0.40667,0.11333 0.77,0.3 1.09,0.56c0.32,0.26 0.57667,0.61333 0.77,1.06c0.19333,0.44 0.29,0.99 0.29,1.65v0c0,0.24 -0.01667,0.49667 -0.05,0.77c-0.02667,0.27333 -0.06667,0.55667 -0.12,0.85v0h-5.12c0.03333,0.72 0.21667,1.26 0.55,1.62c0.33333,0.36667 0.87667,0.55 1.63,0.55v0c0.46667,0 0.88667,-0.07 1.26,-0.21c0.36667,-0.14667 0.64667,-0.29333 0.84,-0.44zM121.645,237.87333v0c-0.58,0 -1.01,0.17333 -1.29,0.52c-0.28,0.34667 -0.44667,0.81 -0.5,1.39v0h3.17c0.04667,-0.61333 -0.04667,-1.08667 -0.28,-1.42c-0.23333,-0.32667 -0.6,-0.49 -1.1,-0.49zM127.145,238.48333l-0.53,-1.65c0.45333,-0.20667 0.99333,-0.37 1.62,-0.49c0.62667,-0.12 1.28,-0.18 1.96,-0.18v0c0.59333,0 1.09,0.07333 1.49,0.22c0.39333,0.14 0.70667,0.34 0.94,0.6c0.23333,0.26 0.4,0.57333 0.5,0.94c0.09333,0.36667 0.14,0.77667 0.14,1.23v0c0,0.5 -0.01667,1.00333 -0.05,1.51c-0.03333,0.50667 -0.05333,1.00333 -0.06,1.49c-0.00667,0.49333 0.00667,0.97 0.04,1.43c0.04,0.46 0.12667,0.89333 0.26,1.3v0h-1.81l-0.36,-1.17h-0.08c-0.22667,0.35333 -0.54333,0.65667 -0.95,0.91c-0.40667,0.25333 -0.92667,0.38 -1.56,0.38v0c-0.4,0 -0.76,-0.06 -1.08,-0.18c-0.31333,-0.12 -0.58667,-0.29 -0.82,-0.51c-0.22667,-0.22 -0.4,-0.48 -0.52,-0.78c-0.12667,-0.30667 -0.19,-0.64667 -0.19,-1.02v0c0,-0.52 0.11667,-0.96 0.35,-1.32c0.23333,-0.36 0.56667,-0.65 1,-0.87c0.44,-0.22 0.96333,-0.37333 1.57,-0.46c0.61333,-0.08667 1.29333,-0.11333 2.04,-0.08v0c0.08,-0.63333 0.03667,-1.09 -0.13,-1.37c-0.17333,-0.28 -0.55667,-0.42 -1.15,-0.42v0c-0.44,0 -0.90667,0.04667 -1.4,0.14c-0.5,0.08667 -0.90667,0.20333 -1.22,0.35zM129.425,243.18333v0c0.44667,0 0.8,-0.1 1.06,-0.3c0.26,-0.2 0.45333,-0.41333 0.58,-0.64v0v-1.11c-0.35333,-0.03333 -0.69,-0.04 -1.01,-0.02c-0.32667,0.02667 -0.61667,0.08 -0.87,0.16c-0.24667,0.08 -0.44333,0.19333 -0.59,0.34c-0.15333,0.14667 -0.23,0.33333 -0.23,0.56v0c0,0.32 0.09667,0.56667 0.29,0.74c0.18667,0.18 0.44333,0.27 0.77,0.27zM140.655,242.65333l0.51,1.69c-0.34,0.24667 -0.75,0.43667 -1.23,0.57c-0.48667,0.13333 -0.98667,0.2 -1.5,0.2v0c-0.68,0 -1.25667,-0.11 -1.73,-0.33c-0.47333,-0.21333 -0.85667,-0.51667 -1.15,-0.91c-0.29333,-0.39333 -0.50667,-0.87 -0.64,-1.43c-0.13333,-0.55333 -0.2,-1.16667 -0.2,-1.84v0c0,-1.44667 0.32667,-2.56 0.98,-3.34c0.64667,-0.78 1.59,-1.17 2.83,-1.17v0c0.62667,0 1.13,0.05333 1.51,0.16c0.38,0.1 0.72333,0.23 1.03,0.39v0l-0.53,1.81c-0.26,-0.12667 -0.51667,-0.22333 -0.77,-0.29c-0.26,-0.06667 -0.55333,-0.1 -0.88,-0.1v0c-0.61333,0 -1.08,0.2 -1.4,0.6c-0.32,0.40667 -0.48,1.05333 -0.48,1.94v0c0,0.36667 0.04,0.70333 0.12,1.01c0.08,0.30667 0.2,0.57333 0.36,0.8c0.16,0.22667 0.36667,0.40667 0.62,0.54c0.25333,0.12667 0.55333,0.19 0.9,0.19v0c0.37333,0 0.69,-0.04667 0.95,-0.14c0.26667,-0.1 0.5,-0.21667 0.7,-0.35zM141.635,238.21333v-1.88h1.17v-1.6l2.22,-0.63v2.23h2.08v1.88h-2.08v3.28c0,0.58667 0.06,1.01 0.18,1.27c0.12,0.25333 0.34333,0.38 0.67,0.38v0c0.23333,0 0.43,-0.02333 0.59,-0.07c0.16667,-0.04 0.35333,-0.10667 0.56,-0.2v0l0.39,1.71c-0.30667,0.14667 -0.66333,0.27 -1.07,0.37c-0.41333,0.10667 -0.83,0.16 -1.25,0.16v0c-0.78667,0 -1.36333,-0.20333 -1.73,-0.61c-0.37333,-0.40667 -0.56,-1.07 -0.56,-1.99v0v-4.3z"></path></g></g></svg>